<?xml version="1.0" encoding="UTF-8" standalone="no"?>
<!-- Created with Inkscape (http://www.inkscape.org/) -->

<svg
   xmlns:dc="http://purl.org/dc/elements/1.1/"
   xmlns:cc="http://creativecommons.org/ns#"
   xmlns:rdf="http://www.w3.org/1999/02/22-rdf-syntax-ns#"
   xmlns:svg="http://www.w3.org/2000/svg"
   xmlns="http://www.w3.org/2000/svg"
   xmlns:xlink="http://www.w3.org/1999/xlink"
   xmlns:sodipodi="http://sodipodi.sourceforge.net/DTD/sodipodi-0.dtd"
   xmlns:inkscape="http://www.inkscape.org/namespaces/inkscape"
   width="27.92461mm"
   height="7.3650103mm"
   viewBox="0 0 27.924611 7.3650102"
   version="1.1"
   id="svg1412"
   inkscape:version="0.92.4 (unknown)"
   sodipodi:docname="dibujo-1.svg">
  <defs
     id="defs1406">
    <path
       inkscape:connector-curvature="0"
       d="M 32.77,123.33 H 627.1 V 312.01 H 32.77 Z"
       id="cQHy4Uh8I" />
    <path
       inkscape:connector-curvature="0"
       d="m 175.22,164.84 -46.23,24.06 v 48.11 l 46.23,24.06 46.22,-24.06 V 188.9 Z"
       id="j17dv9xO7Q" />
    <path
       inkscape:connector-curvature="0"
       d="m 346.16,164.84 -46.22,24.06 v 48.11 l 46.22,24.06 46.23,-24.06 V 188.9 Z"
       id="b2Y9qIX1PR" />
    <path
       inkscape:connector-curvature="0"
       d="m 515.22,164.84 -46.23,24.06 v 48.11 l 46.23,24.06 46.22,-24.06 V 188.9 Z"
       id="b3KuRfq7c6" />
    <path
       inkscape:connector-curvature="0"
       d="m 547.24,212.95 c 0,17.4 -14.35,31.52 -32.02,31.52 -17.67,0 -32.02,-14.12 -32.02,-31.52 0,-17.39 14.35,-31.51 32.02,-31.51 17.67,0 32.02,14.12 32.02,31.51 z"
       id="a89B08gKM" />
    <path
       inkscape:connector-curvature="0"
       d="m 378.18,212.95 c 0,17.4 -14.35,31.52 -32.02,31.52 -17.67,0 -32.02,-14.12 -32.02,-31.52 0,-17.39 14.35,-31.51 32.02,-31.51 17.67,0 32.02,14.12 32.02,31.51 z"
       id="c3BBB3qpGc" />
    <path
       inkscape:connector-curvature="0"
       d="m 207.24,212.95 c 0,17.4 -14.35,31.52 -32.02,31.52 -17.67,0 -32.02,-14.12 -32.02,-31.52 0,-17.39 14.35,-31.51 32.02,-31.51 17.67,0 32.02,14.12 32.02,31.51 z"
       id="f1LUyo9ic" />
    <clipPath
       clipPathUnits="userSpaceOnUse"
       id="clipPath1526">
      <rect
         style="opacity:1;fill:none;fill-opacity:1;stroke:none;stroke-width:0.39687499;stroke-miterlimit:4;stroke-dasharray:none;stroke-opacity:0.78039216"
         id="rect1528"
         width="115.62685"
         height="30.496143"
         x="18.651814"
         y="7.6025581" />
    </clipPath>
  </defs>
  <sodipodi:namedview
     id="base"
     pagecolor="#ffffff"
     bordercolor="#666666"
     borderopacity="1.0"
     inkscape:pageopacity="0.0"
     inkscape:pageshadow="2"
     inkscape:zoom="1.33"
     inkscape:cx="226.66996"
     inkscape:cy="-37.769686"
     inkscape:document-units="mm"
     inkscape:current-layer="layer1"
     showgrid="false"
     inkscape:window-width="1297"
     inkscape:window-height="706"
     inkscape:window-x="69"
     inkscape:window-y="34"
     inkscape:window-maximized="1" />
  <metadata
     id="metadata1409">
    <rdf:RDF>
      <cc:Work
         rdf:about="">
        <dc:format>image/svg+xml</dc:format>
        <dc:type
           rdf:resource="http://purl.org/dc/dcmitype/StillImage" />
        <dc:title></dc:title>
      </cc:Work>
    </rdf:RDF>
  </metadata>
  <g
     inkscape:label="Capa 1"
     inkscape:groupmode="layer"
     id="layer1"
     transform="translate(-45.860241,-131.4751)">
    <g
       id="g1514"
       transform="matrix(0.24150628,0,0,0.24150628,41.355711,129.63903)"
       clip-path="url(#clipPath1526)">
      <g
         transform="translate(-27.208428,-123.87254)"
         id="layer1-1"
         inkscape:label="Capa 1">
        <g
           transform="matrix(0.26458333,0,0,0.26458333,18.538032,91.24148)"
           id="g7354">
          <g
             id="g7352">
            <g
               style="fill:none"
               id="g7326">
              <use
                 height="100%"
                 width="100%"
                 y="0"
                 x="0"
                 style="opacity:1;fill:none;fill-opacity:1"
                 xlink:href="#cQHy4Uh8I"
                 id="use7324" />
            </g>
            <path
               inkscape:connector-curvature="0"
               id="path7387"
               d="m 152.435,244.62326 -22.2561,-11.67139 v -23.43076 -23.43075 l 22.52483,-11.72443 22.52482,-11.72443 22.59713,11.75186 22.59712,11.75186 v 23.39592 23.39592 l -22.86585,11.6788 -22.86585,11.67879 z m 38.66479,-6.93317 c 29.74639,-16.19001 18.21033,-60.17544 -15.79894,-60.23924 -9.84125,-0.0185 -18.25365,3.6035 -24.52272,10.55824 -15.28657,16.95852 -8.54616,44.23539 12.89199,52.17087 7.69159,2.84709 19.61199,1.76504 27.42967,-2.48987 z"
               style="opacity:1;fill:#fe4918;fill-opacity:1;stroke:none;stroke-width:1.5;stroke-miterlimit:4;stroke-dasharray:none;stroke-opacity:0.78039216" />
            <path
               transform="translate(-70.065004,-344.84969)"
               inkscape:connector-curvature="0"
               id="path7389"
               d=""
               style="opacity:0.77999998;fill:#ff0000;fill-opacity:1;stroke:#ff0000;stroke-width:0.85714287;stroke-miterlimit:4;stroke-dasharray:none;stroke-opacity:0.78039216" />
            <path
               style="opacity:1;fill:#fe4918;fill-opacity:1;stroke:none;stroke-width:1.5;stroke-miterlimit:4;stroke-dasharray:none;stroke-opacity:0.78039216"
               d="M 300.435,246.33755 278.17891,234.66616 V 211.2354 187.80465 l 22.52482,-11.72443 22.52482,-11.72443 22.59713,11.75186 22.59712,11.75186 v 23.39592 23.39592 l -22.86585,11.6788 -22.86585,11.67879 z m 38.66479,-6.93317 c 29.74639,-16.19001 18.21033,-60.17544 -15.79894,-60.23924 -9.84125,-0.0185 -18.25365,3.6035 -24.52272,10.55824 -15.28656,16.95852 -8.54616,44.23539 12.89199,52.17087 7.69159,2.84709 19.61199,1.76504 27.42967,-2.48987 z"
               id="path7405"
               inkscape:connector-curvature="0" />
            <path
               style="opacity:1;fill:#fe4918;fill-opacity:1;stroke:none;stroke-width:0.85714287;stroke-miterlimit:4;stroke-dasharray:none;stroke-opacity:0.78039216"
               d="m 447.90643,246.59123 -21.85714,-11.51135 v -23.28369 -23.28368 l 22.63526,-11.73589 22.63527,-11.73588 22.36473,11.64948 22.36474,11.64948 0.14916,23.42741 0.14917,23.42741 -22.13508,11.28445 c -12.17428,6.20645 -22.65569,11.36076 -23.29202,11.45403 -0.65317,0.0957 -10.67437,-4.8429 -23.01409,-11.34177 z m 31.24879,-3.68057 c 9.12344,-2.02499 18.20053,-9.21938 21.99569,-17.43349 4.8839,-10.57056 3.8413,-22.23695 -2.86432,-32.05096 -5.95652,-8.71767 -15.61756,-13.59516 -26.89122,-13.57634 -9.91773,0.0166 -16.7114,2.75071 -23.36345,9.40276 -6.57138,6.57137 -9.41121,13.38753 -9.41121,22.5888 0,12.66811 6.68207,23.60297 17.7813,29.09821 6.89171,3.41209 13.63054,3.99585 22.75321,1.97102 z"
               id="path7427"
               inkscape:connector-curvature="0" />
            <rect
               id="rect7442"
               y="131.38426"
               x="68.792145"
               height="1.7142857"
               width="1.7142857"
               style="opacity:1;fill:#000000;fill-opacity:1;stroke:none;stroke-width:1.5;stroke-miterlimit:4;stroke-dasharray:none;stroke-opacity:0.78039216" />
          </g>
        </g>
      </g>
      <rect
         y="7.6025581"
         x="18.651814"
         height="30.496141"
         width="115.62685"
         id="rect7538"
         style="opacity:1;fill:none;fill-opacity:1;stroke:none;stroke-width:0.39687499;stroke-miterlimit:4;stroke-dasharray:none;stroke-opacity:0.78039216" />
    </g>
  </g>
</svg>
